<svg width="20" height="14" viewBox="0 0 20 14" fill="none" xmlns="http://www.w3.org/2000/svg">
<path d="M15.0642 8.66699L15.0694 6.13296L12.5355 6.14373L12.5389 4.45438L15.0728 4.44362L15.0779 1.90959L16.7672 1.90242L16.762 4.43644L19.2959 4.42567L19.2925 6.11502L16.7586 6.12579L16.7535 8.65981L15.0642 8.66699ZM7.466 7.00993C6.53691 7.01388 5.74222 6.68643 5.08194 6.02758C4.42165 5.36873 4.09245 4.57473 4.09433 3.64559C4.09621 2.71645 4.42863 1.91964 5.09159 1.25517C5.75456 0.590699 6.55058 0.256489 7.47967 0.252542C8.40876 0.248595 9.20345 0.576046 9.86374 1.2349C10.524 1.89375 10.8532 2.68774 10.8513 3.61688C10.8495 4.54603 10.517 5.34283 9.85408 6.0073C9.19112 6.67178 8.39509 7.00599 7.466 7.00993ZM0.695309 13.796L0.700095 11.4309C0.701063 10.9523 0.825128 10.5118 1.07229 10.1096C1.31945 9.70731 1.64736 9.39972 2.05603 9.18682C2.92969 8.7467 3.81721 8.41562 4.71859 8.19358C5.61997 7.97155 6.5352 7.85856 7.46429 7.85461C8.39338 7.85066 9.30817 7.95588 10.2087 8.17026C11.1092 8.38464 11.9954 8.70818 12.8673 9.14089C13.2751 9.35032 13.6017 9.65512 13.8473 10.0553C14.0928 10.4555 14.2151 10.8949 14.2141 11.3735L14.2093 13.7386L0.695309 13.796ZM2.38798 12.0995L12.5235 12.0564L12.5249 11.3807C12.5252 11.2259 12.4868 11.0852 12.4096 10.9589C12.3324 10.8325 12.2306 10.7344 12.104 10.6645C11.3446 10.2877 10.578 10.0058 9.80414 9.81908C9.03028 9.63231 8.24919 9.54061 7.46087 9.54396C6.67255 9.5473 5.89108 9.64565 5.11646 9.83899C4.34183 10.0323 3.57405 10.3207 2.81312 10.704C2.68628 10.7749 2.58402 10.8739 2.50634 11.0009C2.42866 11.128 2.38966 11.2689 2.38935 11.4238L2.38798 12.0995ZM7.46942 5.32059C7.93396 5.31861 8.33198 5.15151 8.66346 4.81927C8.99494 4.48703 9.16115 4.08863 9.16209 3.62406C9.16303 3.15949 8.99843 2.76249 8.66829 2.43307C8.33815 2.10364 7.9408 1.93992 7.47626 1.94189C7.01171 1.94386 6.6137 2.11097 6.28222 2.4432C5.95073 2.77544 5.78452 3.17384 5.78358 3.63841C5.78264 4.10299 5.94724 4.49998 6.27739 4.82941C6.60753 5.15883 7.00487 5.32256 7.46942 5.32059Z" fill="white"/>
</svg>
