<svg width="22" height="22" viewBox="0 0 22 22" fill="none" xmlns="http://www.w3.org/2000/svg">
<path d="M12.8386 13.4781C12.2913 13.843 11.6555 14.0358 11 14.0358C10.3446 14.0358 9.70879 13.843 9.16145 13.4781L0.14648 7.4679C0.0964648 7.43456 0.0477383 7.3998 0 7.36405V17.2124C0 18.3415 0.916309 19.2376 2.02525 19.2376H19.9747C21.1038 19.2376 22 18.3213 22 17.2124V7.364C21.9521 7.39984 21.9033 7.43469 21.8532 7.46807L12.8386 13.4781Z" fill="#004797"/>
<path d="M0.861523 6.39555L9.8765 12.4058C10.2178 12.6333 10.6089 12.747 11 12.747C11.3911 12.747 11.7822 12.6332 12.1235 12.4058L21.1385 6.39555C21.6779 6.03612 22 5.43456 22 4.7853C22 3.66893 21.0918 2.76074 19.9754 2.76074H2.02456C0.908231 2.76079 0 3.66897 0 4.78637C0 5.43456 0.322094 6.03612 0.861523 6.39555Z" fill="#004797"/>
</svg>
