<svg width="25" height="25" viewBox="0 0 25 25" fill="none" xmlns="http://www.w3.org/2000/svg">
<g clip-path="url(#clip0_1138_2468)">
<path d="M24.0269 12.1865C24.0269 5.5591 18.6543 0.186523 12.0269 0.186523C5.39943 0.186523 0.0268555 5.5591 0.0268555 12.1865C0.0268555 18.176 4.41506 23.1405 10.1519 24.0407V15.6553H7.10498V12.1865H10.1519V9.54277C10.1519 6.53527 11.9434 4.87402 14.6844 4.87402C15.9969 4.87402 17.3706 5.1084 17.3706 5.1084V8.06152H15.8575C14.3669 8.06152 13.9019 8.9866 13.9019 9.93652V12.1865H17.23L16.6979 15.6553H13.9019V24.0407C19.6387 23.1405 24.0269 18.176 24.0269 12.1865Z" fill="#004797"/>
</g>
<defs>
<clipPath id="clip0_1138_2468">
<rect width="24" height="24" fill="white" transform="translate(0.0268555 0.186523)"/>
</clipPath>
</defs>
</svg>
