<svg width="20" height="20" viewBox="0 0 20 20" fill="none" xmlns="http://www.w3.org/2000/svg">
<path d="M13.0273 9.79053C13.0273 10.3839 12.8514 10.9639 12.5218 11.4572C12.1921 11.9506 11.7236 12.3351 11.1754 12.5622C10.6272 12.7892 10.024 12.8486 9.44207 12.7329C8.86013 12.6171 8.32558 12.3314 7.90602 11.9118C7.48647 11.4923 7.20074 10.9577 7.08499 10.3758C6.96923 9.79386 7.02864 9.19065 7.2557 8.64248C7.48277 8.0943 7.86729 7.62576 8.36063 7.29612C8.85398 6.96647 9.434 6.79053 10.0273 6.79053C10.8222 6.793 11.5839 7.10986 12.1459 7.67194C12.708 8.23401 13.0249 8.99564 13.0273 9.79053ZM19.4023 5.66553V13.9155C19.4023 15.3079 18.8492 16.6433 17.8647 17.6278C16.8801 18.6124 15.5447 19.1655 14.1523 19.1655H5.90234C4.50996 19.1655 3.1746 18.6124 2.19003 17.6278C1.20547 16.6433 0.652344 15.3079 0.652344 13.9155V5.66553C0.652344 4.27314 1.20547 2.93778 2.19003 1.95322C3.1746 0.968651 4.50996 0.415527 5.90234 0.415527H14.1523C15.5447 0.415527 16.8801 0.968651 17.8647 1.95322C18.8492 2.93778 19.4023 4.27314 19.4023 5.66553ZM14.5273 9.79053C14.5273 8.90051 14.2634 8.03048 13.769 7.29046C13.2745 6.55044 12.5717 5.97366 11.7494 5.63307C10.9272 5.29248 10.0224 5.20336 9.14944 5.37699C8.27652 5.55063 7.4747 5.97921 6.84536 6.60855C6.21603 7.23788 5.78744 8.03971 5.61381 8.91262C5.44018 9.78554 5.52929 10.6903 5.86989 11.5126C6.21048 12.3349 6.78726 13.0377 7.52728 13.5321C8.2673 14.0266 9.13733 14.2905 10.0273 14.2905C11.2208 14.2905 12.3654 13.8164 13.2093 12.9725C14.0532 12.1286 14.5273 10.984 14.5273 9.79053ZM16.0273 4.91553C16.0273 4.69302 15.9614 4.47552 15.8377 4.29051C15.7141 4.10551 15.5384 3.96131 15.3329 3.87616C15.1273 3.79101 14.9011 3.76874 14.6829 3.81214C14.4646 3.85555 14.2642 3.9627 14.1068 4.12003C13.9495 4.27737 13.8424 4.47782 13.799 4.69605C13.7556 4.91428 13.7778 5.14048 13.863 5.34605C13.9481 5.55161 14.0923 5.72731 14.2773 5.85093C14.4623 5.97455 14.6798 6.04053 14.9023 6.04053C15.2007 6.04053 15.4869 5.922 15.6978 5.71102C15.9088 5.50004 16.0273 5.2139 16.0273 4.91553Z" fill="#004797"/>
</svg>
