<svg width="21" height="19" viewBox="0 0 21 19" fill="none" xmlns="http://www.w3.org/2000/svg">
<path d="M4.96875 2.84426C4.96849 3.37469 4.75752 3.8833 4.38226 4.25818C4.007 4.63307 3.49818 4.84353 2.96775 4.84326C2.43732 4.843 1.92871 4.63203 1.55383 4.25677C1.17894 3.88151 0.968485 3.37269 0.96875 2.84226C0.969015 2.31183 1.17998 1.80323 1.55524 1.42834C1.9305 1.05346 2.43932 0.842997 2.96975 0.843262C3.50018 0.843527 4.00879 1.0545 4.38367 1.42976C4.75856 1.80502 4.96902 2.31383 4.96875 2.84426ZM5.02875 6.32426H1.02875V18.8443H5.02875V6.32426ZM11.3488 6.32426H7.36875V18.8443H11.3088V12.2743C11.3088 8.61426 16.0787 8.27426 16.0787 12.2743V18.8443H20.0287V10.9143C20.0287 4.74426 12.9688 4.97426 11.3088 8.00426L11.3488 6.32426Z" fill="#004797"/>
</svg>
