<svg width="22" height="22" viewBox="0 0 22 22" fill="none" xmlns="http://www.w3.org/2000/svg">
<path d="M19.4645 14.1536C18.2298 14.1536 17.0175 13.9605 15.8687 13.5809C15.3058 13.3889 14.6137 13.565 14.2702 13.9179L12.0026 15.6296C9.37294 14.2259 7.75309 12.6066 6.36852 9.9966L8.02991 7.78814C8.46155 7.35708 8.61637 6.72739 8.43088 6.13657C8.0496 4.98172 7.85592 3.76998 7.85592 2.53477C7.85597 1.64245 7.13002 0.916504 6.23776 0.916504H2.53423C1.64196 0.916504 0.916016 1.64245 0.916016 2.53472C0.916016 12.7625 9.23676 21.0832 19.4645 21.0832C20.3568 21.0832 21.0827 20.3572 21.0827 19.465V15.7718C21.0827 14.8796 20.3567 14.1536 19.4645 14.1536Z" fill="#004797"/>
</svg>
