<svg width="22" height="18" viewBox="0 0 22 18" fill="none" xmlns="http://www.w3.org/2000/svg">
<path d="M21.4864 2.89746C20.7164 3.24746 19.8864 3.47746 19.0264 3.58746C19.9064 3.05746 20.5864 2.21746 20.9064 1.20746C20.0764 1.70746 19.1564 2.05746 18.1864 2.25746C17.3964 1.39746 16.2864 0.897461 15.0264 0.897461C12.6764 0.897461 10.7564 2.81746 10.7564 5.18746C10.7564 5.52746 10.7964 5.85746 10.8664 6.16746C7.30641 5.98746 4.13641 4.27746 2.02641 1.68746C1.65641 2.31746 1.44641 3.05746 1.44641 3.83746C1.44641 5.32746 2.19641 6.64746 3.35641 7.39746C2.64641 7.39746 1.98641 7.19746 1.40641 6.89746V6.92746C1.40641 9.00746 2.88641 10.7475 4.84641 11.1375C4.21713 11.3097 3.5565 11.3336 2.91641 11.2075C3.18801 12.0599 3.71994 12.8059 4.43742 13.3404C5.1549 13.8749 6.02185 14.1712 6.91641 14.1875C5.40004 15.3879 3.5204 16.0368 1.58641 16.0275C1.24641 16.0275 0.906406 16.0075 0.566406 15.9675C2.46641 17.1875 4.72641 17.8975 7.14641 17.8975C15.0264 17.8975 19.3564 11.3575 19.3564 5.68746C19.3564 5.49746 19.3564 5.31746 19.3464 5.12746C20.1864 4.52746 20.9064 3.76746 21.4864 2.89746Z" fill="#004797"/>
</svg>
