<svg width="25" height="25" viewBox="0 0 25 25" fill="none" xmlns="http://www.w3.org/2000/svg">
<path d="M12.0273 22.8438C17.5502 22.8438 22.0273 18.3666 22.0273 12.8438C22.0273 7.3209 17.5502 2.84375 12.0273 2.84375C6.5045 2.84375 2.02734 7.3209 2.02734 12.8438C2.02734 18.3666 6.5045 22.8438 12.0273 22.8438Z" stroke="#004797" stroke-width="1.5" stroke-linecap="round" stroke-linejoin="round"/>
<path d="M8.02695 3.84375H9.02695C7.07695 9.68375 7.07695 16.0037 9.02695 21.8438H8.02695" stroke="#004797" stroke-width="1.5" stroke-linecap="round" stroke-linejoin="round"/>
<path d="M15.0273 3.84375C16.9773 9.68375 16.9773 16.0037 15.0273 21.8438" stroke="#004797" stroke-width="1.5" stroke-linecap="round" stroke-linejoin="round"/>
<path d="M3.02734 16.8438V15.8438C8.86734 17.7938 15.1873 17.7938 21.0273 15.8438V16.8438" stroke="#004797" stroke-width="1.5" stroke-linecap="round" stroke-linejoin="round"/>
<path d="M3.02734 9.84385C8.86734 7.89385 15.1873 7.89385 21.0273 9.84385" stroke="#004797" stroke-width="1.5" stroke-linecap="round" stroke-linejoin="round"/>
</svg>
