<svg width="23" height="24" viewBox="0 0 23 24" fill="none" xmlns="http://www.w3.org/2000/svg">
<g clip-path="url(#clip0_5061_3874)">
<path d="M11.5456 0.999548L11.5401 0.999527C5.47506 0.97609 0.523905 5.89049 0.500462 11.9569C0.491164 14.3632 1.25804 16.5964 2.56966 18.4124L1.183 22.4935L5.41632 21.1583C7.15123 22.3172 9.22351 22.9907 11.4606 22.9994C17.5257 23.0228 22.4769 18.107 22.5003 12.042C22.5237 5.97688 17.6107 1.02299 11.5456 0.999548ZM17.8862 16.5575C17.6179 17.3059 16.5623 17.9233 15.7215 18.1016C15.1462 18.2217 14.3951 18.3164 11.8719 17.2589C8.64451 15.9072 6.57547 12.6143 6.41404 12.4006C6.25949 12.1868 5.11452 10.6561 5.12062 9.07766C5.12672 7.49917 5.93131 6.73365 6.25571 6.4049C6.52213 6.13505 6.96123 6.013 7.38198 6.01462C7.5181 6.01515 7.64045 6.0225 7.75043 6.02842C8.07349 6.04342 8.23567 6.0633 8.44682 6.57424C8.70972 7.21464 9.34987 8.79562 9.42624 8.95817C9.50399 9.12072 9.58151 9.34102 9.47069 9.55372C9.36672 9.77332 9.27559 9.87059 9.11262 10.057C8.94965 10.2433 8.7951 10.3857 8.63207 10.5859C8.4829 10.7599 8.31443 10.9463 8.50018 11.2701C8.68595 11.5871 9.32812 12.6442 10.2763 13.4949C11.5 14.5927 12.4941 14.9458 12.8497 15.0957C13.1146 15.2067 13.431 15.1818 13.6256 14.9763C13.8728 14.7119 14.1784 14.2731 14.4894 13.8411C14.7106 13.5312 14.9885 13.4938 15.2796 13.6049C15.5762 13.7092 17.1448 14.4922 17.4673 14.6543C17.7898 14.8178 18.0026 14.8956 18.0805 15.032C18.1569 15.1685 18.1545 15.8078 17.8862 16.5575Z" fill="#004797"/>
</g>
<defs>
<clipPath id="clip0_5061_3874">
<rect width="22" height="22" fill="white" transform="translate(0.542969 0.957031) rotate(0.221404)"/>
</clipPath>
</defs>
</svg>
