
<svg id="Layer_1" data-name="Layer 1" xmlns="http://www.w3.org/2000/svg" viewBox="0 0 633.04 505.22">
  <defs>
    <style>
      .cls-1 {
        fill: #ed1c24;
      }

      .cls-1, .cls-2 {
        stroke-width: 0px;
      }

      .cls-3 {
        fill: #010101;
        font-family: Helvetica, Helvetica;
        font-size: 11.03px;
      }

      .cls-2 {
        fill: #0058a9;
      }
    </style>
  </defs>
  <text class="cls-3" transform="translate(579.83 263.93)"><tspan x="0" y="0"> </tspan></text>
  <g>
    <path class="cls-2" d="M553.82,303.71c-4.21,11.88-8.38,23.65-12.59,35.55h25.2c-.36-1.93-11.66-33.83-12.61-35.55M58.39,330.45c5.3-4.26,10.24-8.22,15.17-12.19,7.08-5.72,14.17-11.44,21.24-17.16.54-.43,1.03-.91,1.52-1.41.87-.87,2.03-1.78,1.37-3.16-.69-1.48-2.13-1.79-3.69-1.69-2.61.17-5.24.25-7.85.44-1.47.11-2.2-.15-2.13-1.95.15-4.4.1-8.82.02-13.24-.02-1.28.34-1.62,1.62-1.62,21.47.04,42.93.03,64.39.02,1.08,0,1.62.17,1.59,1.44-.07,4.62-.06,9.23,0,13.86.02,1.2-.4,1.52-1.54,1.5-3.73-.05-7.45.02-11.18-.04-1.67-.02-3.08.49-4.42,1.46-9.97,7.28-19.5,15.14-29.27,22.68-1.35,1.04-.32,1.65.12,2.33,9.82,15,19.67,29.96,29.52,44.93,1.29,1.96,2.56,3.94,3.94,5.83,1.98,2.72,4.55,4.31,8.1,4.07,2.13-.13,4.28.02,6.42-.03.89-.02,1.19.27,1.18,1.18-.04,4.75-.06,9.51,0,14.28.02,1.51-.91,1.22-1.77,1.22-7.94,0-15.87,0-23.81,0-14.63,0-29.26-.04-43.9.04-1.72.01-2.21-.45-2.16-2.16.12-4.34.07-8.7.01-13.04-.01-1.17.31-1.56,1.51-1.54,3.24.06,6.48.06,9.71-.32,1.84-.21,2.37-1.08,2.11-2.76-.16-.98-.54-1.87-1.11-2.65-6.43-8.96-12.9-17.9-19.32-26.87-.6-.83-.96-.62-1.58-.1-4.98,4.15-9.97,8.29-15,12.39-.68.56-.83,1.16-.82,1.96.05,5.18-.12,10.34.34,15.51.17,1.97,1.08,2.87,3.01,2.86,3.03-.01,6.07.05,9.1-.03,1.27-.03,1.66.34,1.63,1.62-.08,4.49-.08,8.97,0,13.45.01,1.23-.28,1.65-1.6,1.65-22.98-.03-45.96-.03-68.94,0-1.18,0-1.72-.21-1.69-1.57.08-4.56.07-9.1,0-13.65-.02-1.2.4-1.51,1.54-1.5,4.07.06,8.15.04,12.22.02,3.28-.02,4.73-1.2,5.11-4.4.26-2.19.37-4.4.38-6.59.03-20.7.01-41.4,0-62.08,0-1.18.02-2.35-.07-3.52-.29-3.48-1.5-4.63-4.99-4.66-4.07-.04-8.14-.09-12.22.03-1.68.06-2.25-.38-2.2-2.14.13-4.34.08-8.69.01-13.04-.01-1.21.24-1.66,1.58-1.66,23.6.04,47.21.05,70.81,0,1.45,0,1.69.54,1.67,1.8-.06,4.42-.08,8.83,0,13.25.02,1.35-.36,1.8-1.72,1.77-3.38-.07-6.76-.02-10.14-.02-2.53,0-3.23.71-3.51,3.27-.58,5.29-.23,10.61-.29,15.92-.06,5.16-.02,10.32-.02,15.99M164.04,370.82c0-6.83.04-13.65-.02-20.49,0-1.33.34-1.79,1.71-1.77,5.25.07,10.48.03,15.74.02.77,0,1.39,0,1.66,1.05,2.74,10.92,10.01,18,19.75,22.82,10.37,5.14,21.25,7.1,32.72,4.52,2.58-.58,4.93-1.65,7.06-3.29,5.02-3.85,7.03-13.91-1.76-18.42-4.32-2.21-9-2.94-13.64-3.95-10.09-2.21-20.4-3.32-30.44-5.83-7.18-1.79-14.06-4.38-20.32-8.46-11.8-7.7-16.24-19.56-12.6-33.19,3-11.23,10.47-18.32,20.74-22.89,11.92-5.3,24.54-5.95,37.32-5.17,5.58.35,11.08,1.3,16.52,2.63,5.54,1.36,10.75,3.48,15.35,6.9.99.73,1.53.69,1.97-.45.07-.2.22-.36.28-.56,1.44-4.93,4.67-6.61,9.71-5.88,2.9.42,5.92.13,8.89.05,1.31-.04,1.81.28,1.79,1.69-.04,12.27-.04,24.55,0,36.82,0,1.19-.2,1.72-1.57,1.69-4.97-.08-9.94-.07-14.9,0-1.12.02-1.51-.4-1.83-1.4-4.72-14.96-15.35-23.27-31.09-24.4-6.94-.5-13.79-.23-20.49,1.76-5.2,1.55-8.35,5.03-8.78,9.56-.38,4.12,1.24,7.09,4.94,8.94,3.87,1.95,8.17,2.4,12.32,3.36,10.6,2.44,21.46,3.7,31.96,6.66,6.11,1.72,12.08,3.78,17.72,6.74,12.75,6.68,17.62,18.44,16.65,31.84-1,13.72-9.22,21.93-21.29,26.95-10.6,4.41-21.81,5.7-33.16,6.14-8.09.31-16.12.11-23.93-2.45-5.67-1.84-10.97-4.46-15.97-7.67-1.2-.77-1.67-.64-2.19.65-.89,2.17-2,4.23-2.87,6.41-.47,1.15-1.14,1.47-2.33,1.45-4.55-.06-9.11-.08-13.67.02-1.5.03-2-.31-1.98-1.91.1-6.84.04-13.65.04-20.49M292.36,370.78c0-6.83.04-13.66-.03-20.48-.02-1.39.4-1.75,1.73-1.74,5.17.07,10.35.03,15.52.03.84,0,1.58-.08,1.86,1.09,2.3,9.69,8.46,16.45,16.85,21.22,11.08,6.33,22.93,8.89,35.63,6.05,2.58-.58,4.97-1.6,7.02-3.32,6.51-5.45,5.53-14.57-1.99-18.47-4.86-2.54-10.25-3.12-15.49-4.26-9.35-2.03-18.91-3.07-28.2-5.39-7.2-1.79-14.08-4.36-20.34-8.4-11.98-7.73-16.46-19.74-12.7-33.51,3.05-11.14,10.53-18.15,20.71-22.67,11.86-5.26,24.39-5.94,37.12-5.18,5.65.34,11.22,1.28,16.71,2.64,5.56,1.37,10.75,3.49,15.36,6.9.97.73,1.51.68,1.95-.46.17-.45.54-.82.67-1.28,1.29-4.46,4.27-5.7,8.69-5.15,3.19.4,6.48.12,9.72.05,1.13-.03,1.55.27,1.55,1.48-.04,12.41-.04,24.83,0,37.24,0,1.22-.41,1.49-1.55,1.48-4.96-.05-9.94-.05-14.89-.01-.96.01-1.51-.21-1.77-1.21-3.45-13.52-14.82-23.7-31.57-24.62-6.8-.37-13.53-.2-20.07,1.84-4.52,1.42-8,4.02-8.76,9.14-.58,3.95,1.08,7.21,4.59,9.13,3.96,2.16,8.41,2.58,12.69,3.57,10.61,2.46,21.45,3.7,31.95,6.66,5.98,1.69,11.82,3.69,17.36,6.56,9.58,4.96,15.29,12.68,16.71,23.37,1.79,13.46-2.09,25.19-15.44,32.88-3.41,1.97-7.02,3.51-10.79,4.65-9.43,2.86-19.14,3.95-28.96,4.24-7.76.23-15.44-.06-22.9-2.49-5.61-1.82-10.87-4.36-15.79-7.58-1.38-.9-1.91-.68-2.47.79-.83,2.12-1.93,4.11-2.79,6.22-.43,1.03-.98,1.44-2.14,1.42-4.7-.07-9.38-.09-14.08,0-1.41.03-1.71-.45-1.69-1.74.06-6.9.02-13.8.02-20.69M468.75,340.61c0,10.34-.01,20.69,0,31.04,0,4.31,1.66,6,5.98,6.11,2.14.06,4.29.07,6.42,0,1.22-.06,1.7.26,1.68,1.58-.08,4.08-.11,8.15,0,12.21.04,1.49-.58,1.67-1.83,1.66-8.42-.03-16.83-.02-25.26-.02-10.97,0-21.94-.02-32.92.02-1.52.02-2.16-.24-2.09-1.97.14-4,.09-8,.01-12-.02-1.2.35-1.55,1.51-1.49,2.07.08,4.14.04,6.21.01,4.54-.07,6.76-2.11,6.85-6.71.14-7.31.06-14.62.07-21.93.01-5.93.01-11.86,0-17.79-.01-1.25-.02-2.5-.22-3.71-.44-2.78-2.06-4.31-4.87-4.47-2.62-.15-5.25-.18-7.86-.08-1.42.04-1.72-.47-1.69-1.77.07-4.21.07-8.42,0-12.62-.01-1.23.25-1.65,1.58-1.65,14.9.05,29.82.07,44.73,0,1.58,0,1.75.61,1.73,1.93-.04,10.55-.02,21.11-.02,31.67M598.17,393.19c-10.9,0-21.81-.04-32.7.03-1.53,0-2.01-.34-1.98-1.93.12-4.27.13-8.55-.01-12.82-.05-1.73.59-2.03,2.12-1.99,3.51.09,7.03.05,10.56.02,2.24-.02,2.97-.9,2.26-2.99-1.81-5.28-3.79-10.49-5.61-15.76-.42-1.23-1.27-1.03-2.13-1.03-10.77-.01-21.53,0-32.3,0-3.87,0-3.88-.01-5.2,3.7-1.23,3.5-2.44,7.01-3.64,10.53-.23.71-.42,1.46-.54,2.2-.37,2.43.39,3.34,2.84,3.35,3.86.02,7.73.06,11.59-.02,1.35-.03,1.77.35,1.74,1.73-.07,4.49-.06,8.97,0,13.45,0,1.14-.31,1.55-1.51,1.55-17.88-.03-35.74-.03-53.62,0-1.05,0-1.46-.26-1.44-1.38.05-4.69.04-9.37,0-14.07-.01-1.03.39-1.3,1.33-1.27,1.51.06,3.03,0,4.55.02,4.57.08,7.96-2.02,9.68-6.12,2.49-5.96,4.6-12.08,6.8-18.16,8.6-23.82,17.2-47.65,25.73-71.5.64-1.8,1.49-2.3,3.36-2.29,13.18.09,26.37.09,39.54,0,1.71-.02,2.35.58,2.92,2.05,11.34,29.34,22.66,58.69,34.13,87.97,3.71,9.44,4.16,7.96,11.7,8.04,4.64.05,4.64.01,4.64,4.6,0,3.31-.1,6.62.04,9.93.07,1.71-.41,2.21-2.16,2.19-10.89-.07-21.8-.04-32.7-.04"/>
    <path class="cls-2" d="M424.48,266.19c.04,14.45,11.73,26.14,26.22,26.22,14.31.08,26.2-11.77,26.27-26.19.09-14.45-11.81-26.31-26.35-26.28-14.43.04-26.18,11.82-26.14,26.25M483.19,260.25c1.14-.27,1.43.31,1.45,1.33,0,.83.15,1.65.24,2.47.13,1.24.06,2.25-1.64,1.99-.96-.15-1.13.47-1.17,1.25-.05.9-.09,1.8-.25,2.67-.18.97-.17,1.62,1.11,1.53,1.03-.07,1.35.63,1.17,1.49-.29,1.28-.69,2.52-1.03,3.78-.24.92-.88.72-1.44.45-1.14-.55-1.75-.19-2.1.98-.24.79-.62,1.53-.97,2.27-.26.54-.46,1.12.2,1.43,1.77.84,1.12,1.83.27,2.88-.39.49-.78.99-1.07,1.52-.64,1.2-1.35,1.67-2.44.45-.56-.64-1.06-.34-1.54.17-.58.6-1.15,1.2-1.8,1.72-.89.72-1.3,1.42-.25,2.32.97.85.42,1.36-.4,1.86-.7.43-1.38.9-2.06,1.38-1,.69-2.02,1.75-2.68-.34-.22-.68-.72-.43-1.18-.23-.76.33-1.53.65-2.3.93-1.06.37-1.98.74-1.25,2.16.17.34.31.98-.11,1.12-1.62.54-3.28,1.06-4.96,1.39-.82.16-.6-.77-.66-1.23-.11-1.1-.6-1.41-1.66-1.12-.59.16-1.23.2-1.84.15-1.37-.1-2.53-.08-2.18,1.84.11.63-.17,1.03-.92,1.03-1.25,0-2.49-.02-3.7-.33-.76-.2-1.33-.62-1.04-1.46.48-1.39-.34-1.66-1.38-1.86-.87-.16-1.76-.35-2.62-.57-.65-.18-1.18.06-1.3.65-.39,1.84-1.41,1.17-2.42.71-.75-.34-1.5-.71-2.28-.99-.94-.35-1.43-.82-.77-1.81.64-.94.43-1.61-.57-2.14-1.46-.76-2.68-3-4.59-.62-.36.44-.74-.11-1.02-.35-.71-.65-1.38-1.35-2.11-2-.86-.78-1.74-1.49-.17-2.48.64-.4.62-1.01.15-1.6-.42-.54-.95-1.06-1.2-1.68-.6-1.47-1.43-1.8-2.75-.86-.83.59-1.22.03-1.51-.69-.46-1.07-.87-2.18-1.42-3.2-.57-1.05-.25-1.52.82-1.64,1.13-.13,1.35-.7.95-1.71-.27-.7-.39-1.46-.56-2.2-.22-.95-.57-1.69-1.79-1.34-1.08.31-1.47-.21-1.48-1.27-.01-.82-.16-1.64-.32-2.46-.29-1.41-.06-2.3,1.7-2,.74.13,1.16-.15,1.14-1.01-.02-1.17,0-2.36.11-3.51.09-1.08-.66-1.1-1.32-1.12-1-.04-1.12-.47-.86-1.31.29-.92.55-1.86.68-2.82.18-1.36.65-2.03,2.09-1.3.85.43,1.23,0,1.53-.76.35-.89.75-1.78,1.23-2.61.49-.85.39-1.41-.57-1.75-1.17-.41-1.22-1.05-.44-1.95.54-.62,1.01-1.32,1.4-2.05.67-1.25,1.41-1.83,2.63-.56.47.5.95.35,1.41-.12.57-.6,1.15-1.21,1.79-1.72.97-.76,1.3-1.51.26-2.46-.65-.61-.59-1.15.18-1.64,1.05-.67,2.04-1.4,3.1-2.07.67-.44,1.4-.48,1.64.43.37,1.4,1.22,1.1,2.03.62,1.41-.83,4-.82,2.88-3.69-.05-.14.36-.6.62-.7,1.36-.52,2.75-.93,4.2-1.03.47-.03.76.13.96.59.24.55-.2,1.57.92,1.53,1.44-.04,2.89-.17,4.32-.31.14-.02.27-.41.36-.66.21-.63-.45-1.73.73-1.84,1.64-.14,3.29-.07,4.89.49.11.04.15.36.19.55.15.71-.39,1.75.41,2.08,1.25.53,2.64.73,3.99,1.05.39.1.72-.15.8-.48.39-1.98,1.53-1.4,2.69-.83.56.27,1.13.56,1.71.73,1.33.36,1.93.97.97,2.27-.33.46-.32.86.19,1.23,1.02.71,2.01,1.46,3,2.2.45.33.9.42,1.23-.12.89-1.41,1.79-.76,2.72-.05.84.63,1.51,1.41,2.08,2.27.41.57.61,1.17-.19,1.54-1.43.67-.77,1.42-.17,2.22.45.61.89,1.23,1.29,1.88.37.6.9.99,1.54.6,1.62-1.02,2.2-.04,2.7,1.26.24.64.48,1.3.8,1.91.5.95.57,1.65-.72,1.96-.82.2-1.02.79-.79,1.6.22.72.36,1.48.49,2.22.2,1.14.52,2.07,2.01,1.51"/>
    <path class="cls-1" d="M519.65,438.45c1.67-7.03,3.37-14.05,4.96-21.09.29-1.31.72-1.87,2.14-1.79,2.13.12,4.28.08,6.41.01,1.11-.04,1.4.37,1.4,1.44-.04,10.62-.05,21.24,0,31.87,0,1.2-.42,1.48-1.56,1.51-4.34.1-4.34.14-4.34-4.08,0-6.27,0-12.56,0-18.84v-2.02c-.17-.04-.34-.05-.51-.07-.72,3.14-1.46,6.27-2.18,9.43-1.02,4.56-2.07,9.13-3.03,13.7-.29,1.33-.73,1.94-2.28,1.89-4.22-.1-4.22-.01-5.15-4.16-1.5-6.65-3.01-13.3-4.52-19.94-.11-.52-.3-1.03-.76-1.53v3.5c0,6.82-.03,13.65.02,20.49.01,1.27-.36,1.61-1.62,1.62-4.24.02-4.24.08-4.24-4.15,0-9.58.04-19.17-.04-28.76-.01-1.57.39-2.04,1.94-1.93,1.93.14,3.87.14,5.79,0,1.41-.11,1.88.47,2.17,1.73,1.5,6.51,3.07,13,4.61,19.49.13.52.3,1.05.44,1.57.11.02.22.06.34.09M211.22,487.21c0-5.23.05-10.46-.04-15.68-.02-1.42.44-1.7,1.74-1.7,4.58,0,4.58-.05,4.58,4.61,0,9.43-.03,18.85.04,28.28,0,1.57-.43,1.98-1.97,1.94-4.35-.07-4.35,0-4.35-4.25v-13.2ZM482.79,487.17c0,5.17-.05,10.33.04,15.49.03,1.47-.25,2.05-1.88,2.02-4.47-.07-4.47.01-4.47-4.38,0-9.42.04-18.86-.04-28.29-.01-1.66.32-2.25,2.1-2.2,4.26.13,4.26.04,4.26,4.35v13.01h-.01ZM5.02,486.97c0-5.16.03-10.33-.02-15.49-.01-1.23.26-1.66,1.58-1.66,4.76-.04,4.76-.09,4.76,4.65,0,9.37-.04,18.72.03,28.09.01,1.54-.27,2.15-2,2.11-4.34-.11-4.34-.02-4.34-4.29v-13.42ZM548.78,486.96c0-5.17.04-10.33-.03-15.49,0-1.23.27-1.65,1.6-1.65,4.75-.02,4.75-.09,4.75,4.66,0,9.43-.04,18.87.03,28.3,0,1.39-.29,1.89-1.8,1.88-4.55-.04-4.55.04-4.55-4.48v-13.22ZM576.01,433.13c0-5.17.05-10.33-.04-15.49-.03-1.47.41-1.84,1.85-1.82,4.46.04,4.46-.02,4.46,4.34,0,7.5.03,15-.04,22.52-.01,1.45.4,1.84,1.83,1.81,4.06-.09,8.13.02,12.19-.06,1.38-.02,1.73.42,1.73,1.77-.02,4.19.03,4.19-4.22,4.19-5.17,0-10.33-.07-15.5.04-1.73.04-2.38-.27-2.32-2.21.16-5.02.06-10.05.06-15.07M240.62,433.18c0-5.23.04-10.47-.03-15.71-.01-1.21.27-1.64,1.6-1.66,4.72-.04,4.72-.09,4.72,4.7,0,7.3.04,14.6-.03,21.9-.03,1.58.33,2.14,2.02,2.09,4.06-.12,8.13,0,12.19-.06,1.18-.02,1.5.34,1.52,1.51.07,4.44.11,4.44-4.38,4.44-5.31,0-10.62-.04-15.92.02-1.35.01-1.75-.36-1.72-1.73.08-5.17.03-10.34.03-15.5M610.73,430.14c0,4.22.07,8.42-.03,12.63-.03,1.38.41,1.74,1.74,1.71,4-.09,8.01.02,12.01-.06,1.36-.02,1.93.24,1.91,1.78-.02,4.2.05,4.2-4.22,4.2-5.38,0-10.76-.04-16.14.01-1.23.02-1.68-.31-1.67-1.61.04-10.49.04-20.97,0-31.45,0-1.18.38-1.51,1.55-1.53,4.85-.1,4.85-.15,4.85,4.61v9.72ZM533.88,490.22c0,4.26-.04,8.55.03,12.82.02,1.28-.4,1.61-1.65,1.62-4.65.04-4.65.08-4.65-4.57,0-7.51-.04-15.02.02-22.53.02-1.43-.32-1.94-1.79-1.83-2.07.12-4.15,0-6.22.04-.86.02-1.17-.25-1.25-1.16-.41-4.75-.42-4.75,4.25-4.75,6.28,0,12.56.04,18.84-.02,1.36-.02,1.73.4,1.72,1.74-.02,4.18.04,4.18-4.23,4.18q-5.07,0-5.07,5.15v9.32ZM407.48,435.87c0-4.14-.1-8.27.05-12.41.06-1.71-.56-2.07-2.09-1.97-1.93.11-3.87-.04-5.79.05-1.1.04-1.38-.33-1.42-1.4-.2-4.54-.23-4.54,4.25-4.55,6.21,0,12.43.04,18.62-.01,1.35-.02,1.95.2,1.93,1.75-.06,4.18.03,4.18-4.24,4.18q-5.03,0-5.03,4.97c0,7.38-.02,14.76.04,22.13,0,1.3-.28,1.78-1.69,1.78-4.61.01-4.61.08-4.61-4.6v-9.93ZM156.79,490.08c0-4.28-.04-8.55.02-12.81.01-1.15-.29-1.58-1.49-1.54-2.14.08-4.28-.02-6.41.04-1.06.04-1.41-.29-1.45-1.39-.17-4.52-.21-4.52,4.29-4.52,6.2,0,12.4.04,18.61-.04,1.46-.01,2.03.24,1.98,1.89-.12,4.03-.01,4.01-4.13,4.06-1.64.02-3.75-.72-4.77.32-1.02,1.02-.3,3.13-.31,4.76-.04,7.23-.05,14.47.01,21.7.02,1.53-.24,2.17-1.99,2.13-4.35-.11-4.37-.02-4.37-4.47v-10.13ZM352.3,435.9c0-4.13-.09-8.28.04-12.41.06-1.7-.53-2.11-2.09-2.01-1.99.12-4,0-6.01.04-.82.01-1.2-.21-1.28-1.15-.44-4.77-.47-4.77,4.26-4.77,6.29,0,12.56.03,18.84-.02,1.31-.02,1.76.3,1.75,1.69-.03,4.24.04,4.21-4.16,4.26-1.62.02-3.74-.73-4.75.33-.99,1.05-.29,3.16-.29,4.8-.04,7.24-.07,14.49.03,21.72.02,1.69-.52,2.06-2.09,2.02-4.26-.07-4.26,0-4.26-4.16v-10.34ZM10.41,436.03c0-4.34-.04-8.69.02-13.04.02-1.18-.33-1.56-1.51-1.51-2.13.09-4.28,0-6.42.05-.97.02-1.27-.28-1.33-1.28-.25-4.67-.28-4.65,4.35-4.65,6.14,0,12.29.04,18.43-.04,1.57-.02,2.15.31,2.09,2.02-.11,3.93-.02,3.92-3.88,3.94-1.72.01-3.97-.55-5,.31-1.2,1.02-.4,3.35-.4,5.11-.05,7.17-.07,14.34.02,21.52.02,1.56-.44,1.98-1.98,1.95-4.4-.07-4.4,0-4.4-4.46v-9.93ZM442.29,487.03c.07-3.43.57-7.02,2.31-10.34,3.61-6.89,12.13-9.55,18.77-5.85,2.94,1.63,4.61,4.21,5.64,7.33.32.95.14,1.41-.84,1.59-.54.11-1.07.24-1.58.42-2.03.74-3.6,1.17-4.59-1.73-.8-2.36-3.2-3.26-5.78-3.14-2.83.14-5,1.5-6,4.03-2.09,5.26-2.04,10.69.08,15.91,1.08,2.69,3.46,4.03,6.49,3.86,3.1-.18,5.02-2.06,5.75-4.84.62-2.4,1.6-2.32,3.53-1.55,3.69,1.46,3.7,1.35,2.11,4.93-2.02,4.58-5.5,7.1-10.51,7.47-5.36.39-9.53-1.71-12.46-6.19-2.31-3.53-2.9-7.52-2.92-11.9M110.5,483.4c0,3.94.02,7.87-.31,11.79-.48,5.76-3.76,9.26-9.51,9.87-1.71.19-3.47.17-5.17-.04-5.65-.7-8.81-3.78-9.48-9.45-.78-6.53-.26-13.09-.38-19.64-.01-.55,0-1.11,0-1.66,0-4.71.6-5.16,5.4-4.44,1.3.19.86,1.05.86,1.68.04,6.54.03,13.1.04,19.65,0,.77.01,1.53.1,2.27.5,4.67,4.49,7.04,8.87,5.28,2.02-.81,2.92-2.39,3.04-4.5.45-7.38.21-14.76.18-22.14,0-1.79.38-2.35,2.25-2.27,4.11.16,4.11.05,4.11,4.09v9.5ZM503.04,478.65c-.15,0-.31-.02-.47-.04-1.22,3.76-2.43,7.52-3.68,11.27-.38,1.13.44.92.98.93,1.93.01,3.85-.04,5.78.01,1.23.05,1.35-.35.96-1.44-1.25-3.56-2.39-7.15-3.58-10.74M502.82,496.85c-1.99,0-4.37-.67-5.87.19-1.53.87-1.61,3.5-2.09,5.4-.46,1.81-1.36,2.31-3.19,2.24-4.31-.16-4.31-.05-2.92-4.01,3.36-9.61,6.76-19.2,10.05-28.84.5-1.45,1.09-2.05,2.72-2.01,4.68.11,4.67.04,6.28,4.52,3.38,9.38,6.75,18.76,10.14,28.15q.77,2.14-1.6,2.14-4.49.01-5.93-4.11-1.32-3.79-5.32-3.79h-2.27v.12ZM324.99,477.96c-1.38,4.25-2.58,7.94-3.79,11.64-.21.64-.49,1.23.59,1.22h6.61c.45-.01.83-.13.64-.73-1.3-3.88-2.59-7.76-4.05-12.13M324.64,496.72c-1.66.12-4.03-.75-5.53.32-1.49,1.07-1.62,3.55-2.07,5.46-.46,1.94-1.51,2.21-3.24,2.16-4.18-.12-4.18-.04-2.84-3.91,3.35-9.61,6.73-19.22,10.01-28.86.51-1.52,1.13-2.16,2.87-2.09,4.59.15,4.6.04,6.11,4.24,3.43,9.58,6.84,19.18,10.35,28.74.61,1.68.21,1.91-1.4,1.88-4.85-.06-4.79-.02-6.43-4.59-1.47-4.06-.31-3.26-4.6-3.35-.97-.02-1.93,0-3.23,0M281.08,423.7c-1.39,4.29-2.55,7.96-3.76,11.62-.27.8-.38,1.29.73,1.26,2.07-.02,4.14,0,6.2-.01.55,0,1.17.07.85-.86-1.29-3.81-2.56-7.64-4.02-12.01M280.73,442.45c-1.66.14-4.03-.75-5.53.33-1.5,1.07-1.57,3.56-2.09,5.46-.46,1.7-1.23,2.22-2.98,2.17-4.42-.13-4.44-.04-3.03-4.09,3.37-9.68,6.79-19.34,10.11-29.03.47-1.35,1.1-1.75,2.51-1.73,4.8.09,4.8.02,6.38,4.43,3.42,9.52,6.79,19.05,10.28,28.55.61,1.64.27,1.89-1.36,1.88-4.85-.07-4.85-.01-6.43-4.59q-1.17-3.38-4.83-3.38h-3.02M219.55,424.17c-.29.36-.4.42-.44.54-.73,2.22-1.46,4.44-2.16,6.66-.52,1.63-1.88,3.91-1.28,4.75.89,1.23,3.27.39,5.01.44,3.06.08,3.07.01,2.07-2.97-1.04-3.09-2.09-6.17-3.2-9.42M231.85,450.38q-3.4-.01-4.49-3.23-1.6-4.7-6.57-4.7c-1.93,0-3.87.09-5.79-.02-1.37-.08-2.06.41-2.26,1.74-.08.53-.34,1.05-.51,1.57-1.54,4.69-1.54,4.59-6.3,4.68-1.98.06-1.72-.66-1.25-1.98,3.23-9.16,6.42-18.31,9.62-27.47.07-.2.14-.4.2-.59,1.66-4.85,1.66-4.79,6.69-4.82,1.41-.01,1.89.59,2.3,1.75,3.65,10.3,7.31,20.62,11.09,30.88.65,1.78.58,2.51-1.49,2.19-.41-.06-.83,0-1.24,0M382.89,424.41c-.16.02-.31.04-.47.06-1.29,3.96-2.59,7.92-3.91,12.01h8.4c-1.36-4.11-2.7-8.09-4.02-12.08M395.01,450.36q-3.33.01-4.39-3.07-1.67-4.84-6.66-4.83c-2.41,0-5.23-.7-7.1.33-1.81,1-1.69,4.14-2.47,6.33-.33.93-.78,1.32-1.78,1.27-1.37-.08-2.75-.05-4.14,0-1.03.04-1.11-.31-.8-1.22,3.8-10.84,7.58-21.69,11.34-32.54.26-.75.67-1.08,1.51-1.05,1.44.07,2.9.07,4.34,0,.91-.04,1.31.3,1.62,1.17,3.83,10.76,7.68,21.51,11.59,32.23.44,1.22.12,1.48-1.01,1.4-.69-.04-1.38-.01-2.07-.01M554.79,423.73c-1.38,4.23-2.58,7.94-3.82,11.63-.32.93-.12,1.24.88,1.21,1.99-.05,3.98-.05,5.96,0,1,.02,1.15-.36.86-1.23-1.25-3.68-2.47-7.38-3.88-11.62M567.17,450.36q-3.33.01-4.44-3.23-1.62-4.69-6.58-4.69c-1.92,0-3.86.09-5.78-.02-1.37-.09-2.05.42-2.29,1.71-.09.54-.32,1.06-.5,1.58-1.53,4.7-1.55,4.65-6.28,4.68-1.55.01-1.87-.29-1.32-1.82,3.3-9.27,6.51-18.56,9.75-27.83.11-.33.21-.66.32-.98,1.45-4.17,1.45-4.07,5.9-4.21,1.74-.06,2.49.51,3.06,2.13,3.54,10.13,7.2,20.21,10.82,30.31q.85,2.37-1.63,2.37h-1.04ZM31.87,432.95c0-5.24.04-10.48-.02-15.71-.01-1.22.24-1.66,1.57-1.67,4.73-.02,4.73-.09,4.72,4.71,0,2.48.04,4.97-.02,7.45-.03,1.09.19,1.63,1.45,1.6,3.17-.08,6.35-.09,9.52-.01,1.28.04,1.44-.54,1.43-1.6-.05-3.52.04-7.03-.05-10.56-.04-1.31.41-1.58,1.64-1.58,4.64-.02,4.64-.07,4.64,4.57,0,9.43-.03,18.89.05,28.33,0,1.58-.45,1.94-1.97,1.92-4.35-.06-4.35,0-4.35-4.27,0-3.1-.04-6.21.03-9.31.02-1.19-.19-1.71-1.56-1.67-3.09.11-6.21.11-9.3,0-1.39-.04-1.57.51-1.55,1.68.07,3.94-.02,7.86.05,11.8.02,1.3-.28,1.78-1.69,1.78-4.6,0-4.6.07-4.6-4.41v-13.04ZM388.13,505.19c-7.4-.08-11.88-3.9-12.64-10.67-.12-1.03.09-1.41,1.1-1.36.34.01.69-.06,1.03-.11q3.35-.43,4.64,2.49c1.66,3.76,7.2,5.05,10.37,2.42,2.6-2.16,2.17-5.66-.98-6.89-2.5-.97-5.13-1.57-7.66-2.47-4.94-1.75-7.46-5-7.54-9.48-.07-4.11,2.19-7.62,6.04-8.98,3.84-1.36,7.75-1.3,11.52.27,3.5,1.48,5.12,4.41,5.62,8.07.13.92-.09,1.46-1.16,1.41-.54-.04-1.1-.04-1.64.05-2.03.31-3.39.13-4.26-2.32-1.1-3.11-7.38-3.51-9.48-.89-1.03,1.28-.72,3.13.74,4.15,1.1.75,2.35,1.13,3.6,1.53,1.64.51,3.31.97,4.94,1.49,6.37,2.04,9.05,6.18,8.12,12.47-.79,5.32-5.06,8.66-11.3,8.82h-1.03M130.44,505.2c-7.64-.09-12.14-3.87-12.9-10.52-.11-1.02-.06-1.62,1.15-1.55.4.02.82-.06,1.23-.12q3.12-.4,4.31,2.41c1.58,3.71,6.9,5.17,10.16,2.73,1.36-1.02,2.07-2.34,1.9-4.11-.19-1.79-1.42-2.61-2.9-3.13-3.04-1.08-6.26-1.69-9.19-3.08-4.59-2.17-6.76-6.94-5.32-11.69.24-.78.55-1.58,1.01-2.26,3.39-4.91,8.36-5.05,13.53-4.27,4.3.65,7.26,3.68,8.15,7.99.34,1.61.04,2.53-1.86,2.32-.54-.06-1.11-.05-1.64.06-1.7.3-2.6-.12-3.23-2-1.12-3.33-7.47-4.03-9.72-1.26-1.07,1.33-.7,3.25.89,4.27,1.41.9,3.04,1.27,4.61,1.78,1.97.63,3.98,1.14,5.88,1.94,4.56,1.93,6.62,5.78,6.06,11.05-.49,4.65-3.52,8.01-8.12,9.02-1.42.31-2.85.48-3.99.43M267.33,505.15c-7.16-.05-11.14-3.32-12.46-10.13-.25-1.23-.23-2.03,1.35-1.89.4.02.82-.07,1.22-.16,2.07-.51,3.36-.37,4.09,2.26,1.12,3.96,6.76,5.38,10.14,2.93,1.32-.96,2.04-2.26,1.93-3.89-.11-1.73-1.2-2.74-2.75-3.26-2.55-.83-5.14-1.54-7.67-2.44-4.13-1.47-6.98-4.09-7.36-8.74-.39-4.84,2.19-8.64,6.85-9.99,3.21-.91,6.44-.82,9.59.17,3.86,1.22,6.37,4.6,6.69,8.61.07.92-.17,1.27-1.07,1.27-.83-.01-1.67-.05-2.48.09-1.77.28-2.76-.16-3.36-2.11-1.2-3.96-8.15-3.21-9.75-1.07-1.12,1.51-.57,3.41,1.41,4.42,2.66,1.33,5.61,1.86,8.42,2.8,5.03,1.72,7.55,4.77,7.79,9.54.34,6.55-3.73,11.04-10.52,11.57-.68.05-1.38.01-2.07.01M333.56,425.66c-1.64.47-2.59.05-3.25-1.96-1.1-3.34-7.45-4-9.71-1.21-1.02,1.27-.71,3.13.75,4.14,1.09.75,2.35,1.13,3.61,1.53,1.71.54,3.43.99,5.14,1.56,5.8,1.91,8.47,5.65,8.01,11.2-.45,5.64-3.76,9.04-9.82,9.88-2.62.37-5.23.24-7.77-.6-4.21-1.4-7.43-5.78-7.5-10.21,0-.2-.11-.54-.03-.59,1.52-.88,3.27-.64,4.93-.9.94-.16,1.12.39,1.35,1.13,1.43,4.56,4.34,6.23,8.79,5.12,2.12-.54,3.63-2.21,3.74-4.15.13-2.07-.82-3.28-3.33-4.09-2.42-.8-4.9-1.43-7.28-2.32-5.1-1.89-7.75-5.86-7.21-10.54.56-4.87,4.01-7.96,9.62-8.59,2.07-.23,4.14-.06,6.16.45,4.09,1.07,6.41,3.81,7.29,7.88.36,1.65-.08,2.49-1.91,2.28-.47-.05-.96-.01-1.58-.01M484.9,450.96c-7.33-.07-11.45-3.53-12.67-10.46-.21-1.25.11-1.64,1.28-1.61.55,0,1.1-.11,1.64-.22,1.91-.39,3.12-.32,3.78,2.18,1.07,4.01,6.63,5.53,10.08,3.13,1.4-.97,2.17-2.32,2.04-4.04-.14-1.84-1.43-2.77-3.01-3.3-2.99-1.02-6.12-1.65-9-2.98-5.22-2.43-7.32-8.14-4.9-13.17,1.98-4.12,6.56-6.06,12.62-5.35,5.2.6,8.42,3.31,9.4,7.89q.54,2.55-2.16,2.67c-.62.02-1.25-.04-1.86.07-1.38.23-1.98-.19-2.45-1.65-1.13-3.6-7.48-4.57-9.88-1.64-1.06,1.3-.79,3.05.72,4.13,1.14.8,2.47,1.2,3.78,1.61,2.5.77,5.07,1.33,7.43,2.47,4.03,1.96,5.91,5.48,5.6,10.39-.25,4.29-2.92,7.8-6.93,9.11-1.79.58-3.63.83-5.51.78M365.4,479.89c-1.84.51-2.85-.01-3.6-2.13-1.12-3.19-7.48-3.71-9.62-1.02-1.03,1.3-.72,3.07.79,4.12,1.15.8,2.47,1.18,3.79,1.6,2.29.73,4.64,1.33,6.87,2.24,4.37,1.81,6.54,5.71,6.12,10.66-.39,4.68-3.31,8.25-7.76,9.33-2.78.68-5.6.72-8.41.15-6.14-1.26-8.22-5.88-8.98-10.53-.06-.32-.16-.69.17-.96.32-.27,5.5-.76,5.69-.46.24.39.32.87.45,1.32,1.32,4.24,4.82,6.06,9.07,4.73,2.04-.64,3.54-2.49,3.5-4.39-.04-2.14-1.45-3.15-3.27-3.75-2.61-.86-5.3-1.54-7.85-2.54-4.86-1.89-7.22-5.71-6.69-10.41.53-4.65,3.58-7.54,8.81-8.39,2.43-.4,4.82-.24,7.17.42,4.17,1.18,6.35,4.06,7.08,8.26.25,1.48-.24,1.86-1.56,1.77-.55-.05-1.1-.01-1.76-.01M225.31,487.18c0-5.24.04-10.49-.03-15.71-.01-1.25.28-1.66,1.6-1.65,6.68.07,13.38.06,20.07.01,1.1-.01,1.53.22,1.56,1.46.06,4.46.12,4.46-4.33,4.46-3.65,0-7.31.06-10.97-.02-1.28-.02-1.7.36-1.6,1.63.17,1.91-.77,4.37.35,5.61,1.14,1.28,3.65.35,5.55.41,2.76.07,5.52.07,8.28-.01,1.19-.02,1.5.37,1.53,1.53.07,4.41.12,4.41-4.21,4.41-3.23,0-6.47.04-9.72-.02-1.29-.04-1.88.29-1.79,1.71.11,1.99.11,4,0,5.99-.07,1.36.39,1.77,1.73,1.74,4.63-.07,9.24.02,13.86-.06,1.41-.02,1.89.32,1.88,1.81-.04,4.14.02,4.14-4.06,4.14-5.94,0-11.87-.05-17.8.04-1.58.04-1.96-.44-1.93-1.97.1-5.17.04-10.33.04-15.51M76.94,450.38c-3.45,0-6.9-.04-10.35.02-1.16.01-1.55-.32-1.55-1.52.04-10.62.03-21.24,0-31.87,0-1.06.28-1.45,1.39-1.43,6.83.04,13.66.02,20.49,0,.98-.01,1.26.3,1.31,1.28.23,4.65.27,4.65-4.36,4.65-3.66,0-7.32.04-10.98-.02-1.12-.02-1.62.26-1.55,1.48.1,1.51.1,3.04,0,4.55-.08,1.27.35,1.66,1.62,1.64,4.07-.07,8.15.03,12.21-.06,1.45-.04,1.87.38,1.86,1.84-.04,4.09.03,4.09-4.11,4.09-3.32,0-6.63.04-9.93-.03-1.27-.02-1.7.39-1.65,1.66.08,2.07.1,4.14-.01,6.2-.07,1.34.45,1.61,1.67,1.6,4.69-.06,9.38.02,14.08-.06,1.41-.03,1.73.44,1.73,1.76,0,4.2.06,4.2-4.22,4.2h-7.66ZM428.89,432.89c0-5.17.02-10.34-.02-15.53-.01-1.22.13-1.82,1.64-1.81,6.62.09,13.25.07,19.87.01,1.3-.01,1.61.38,1.62,1.63.02,4.32.07,4.32-4.29,4.32-3.58,0-7.18.04-10.76-.03-1.25-.02-1.92.17-1.79,1.65.17,1.91-.57,4.4.38,5.59,1.01,1.27,3.61.34,5.51.39,2.76.08,5.52.07,8.27,0,1.17-.02,1.52.35,1.55,1.53.1,4.39.14,4.39-4.26,4.39-3.31,0-6.62.06-9.93-.01-1.21-.04-1.55.37-1.5,1.52.07,2.06.09,4.13-.01,6.2-.06,1.34.34,1.76,1.71,1.73,4.56-.08,9.11.04,13.67-.06,1.56-.03,2.16.31,2.09,2.03-.11,3.93-.01,3.93-3.88,3.93-5.86,0-11.74-.09-17.6.05-1.98.04-2.37-.62-2.33-2.43.12-5.03.05-10.07.05-15.1M143.12,433c0-5.23.04-10.48-.03-15.72-.02-1.38.4-1.73,1.74-1.73,6.56.07,13.11.07,19.67.01,1.36-.01,1.74.35,1.73,1.72-.02,4.23.04,4.23-4.16,4.23-3.66,0-7.31.07-10.97-.03-1.41-.04-1.77.45-1.68,1.74.11,1.51.09,3.04,0,4.56-.07,1.11.36,1.39,1.41,1.37,4.14-.05,8.28.04,12.42-.05,1.45-.02,1.87.41,1.86,1.86-.03,4.08.03,4.08-4.15,4.08-3.31,0-6.62.05-9.93-.03-1.28-.04-1.68.37-1.61,1.63.1,2.07.11,4.14,0,6.21-.07,1.26.31,1.64,1.6,1.61,4.62-.07,9.24.02,13.87-.06,1.49-.03,2.03.29,2,1.91-.09,4.04,0,4.04-3.98,4.04-5.86,0-11.73-.09-17.59.05-1.9.05-2.28-.56-2.24-2.32.11-5.03.04-10.07.04-15.1M116.62,430.53c3.84-4.66,7.59-9.15,11.26-13.69.72-.9,1.44-1.32,2.61-1.27,2.11.09,4.24.02,6.39.02.1.89-.54,1.19-.9,1.62-3.05,3.55-6.08,7.13-9.22,10.61-.91,1.01-.92,1.71-.25,2.84,3.45,5.79,6.82,11.64,10.22,17.46.37.65.72,1.3,1.25,2.24-2.6,0-4.92-.02-7.23.02-1.01.01-1.23-.72-1.58-1.37-2.33-4.45-4.72-8.87-6.98-13.35-.66-1.3-1.19-1.51-2.05-.27-.05.06-.07.12-.13.16-4.12,2.97-3.98,7.27-3.78,11.65.15,3.17.03,3.18-3.13,3.18-.55,0-1.11-.06-1.66.01-1.13.12-1.57-.27-1.56-1.49.05-10.61.05-21.22,0-31.83,0-1.23.41-1.48,1.55-1.5,4.83-.12,4.83-.15,4.83,4.61,0,3.25.02,6.48.03,9.72,0,.11.11.22.32.63M412.93,486.95c.04,2.49.31,4.95,1.31,7.27,1.33,3.06,4.23,4.97,7.48,4.92,3.26-.04,6.09-1.98,7.27-5.18,1.58-4.28,1.63-8.64.25-12.97-1.16-3.66-3.89-5.63-7.49-5.68-3.75-.05-6.45,1.88-7.81,5.56-.74,1.96-.91,4.02-1.01,6.09M406.48,487.69c.05-4.27.54-8.05,2.57-11.5,2.9-4.97,7.33-7.08,12.93-6.93,5.61.14,10.03,2.59,12.49,7.7,3.07,6.42,3.08,13.1.44,19.63-2.52,6.19-8.13,9.19-15,8.54-6.46-.6-11.27-5-12.79-11.66-.47-2.02-.6-4.08-.63-5.77M585.31,487.3c-.01-2.27-.16-4.54-.98-6.7-1.27-3.33-3.92-5.24-7.38-5.3-3.63-.04-6.4,1.75-7.65,5.17-1.67,4.57-1.65,9.19.15,13.72,1.25,3.13,4.17,4.99,7.43,4.95,3.23-.04,6.09-2.04,7.33-5.15.85-2.16,1.11-4.4,1.11-6.69M591.83,487.18c.04,2.36-.19,4.67-.83,6.94-1.88,6.81-6.95,10.92-13.7,11.05-7.33.14-12.6-3.61-14.68-10.58-1.45-4.87-1.41-9.81,0-14.67,2.09-7.19,7.68-11.09,14.99-10.68,7.13.41,12.36,5.2,13.76,12.6.34,1.77.5,3.54.45,5.34M58.72,487.17c0,3.38.03,6.75-.01,10.12-.02,1.03.21,1.51,1.35,1.45,1.99-.12,4-.01,5.99-.17,2.38-.2,4.12-1.37,4.89-3.78,1.47-4.65,1.47-9.33.29-14.03-.8-3.19-3.04-4.79-6.31-4.92-1.59-.06-3.18.01-4.75-.11-1.23-.09-1.48.41-1.46,1.55.07,3.29.02,6.59.02,9.89M52.39,487.24c0-5.17.07-10.34-.04-15.51-.03-1.6.47-1.96,1.99-1.91,3.93.14,7.86.12,11.79.14,4.98.03,8.49,2.48,10.36,6.89,2.88,6.83,2.95,13.83.03,20.7-1.86,4.37-5.35,6.62-10.15,6.92-4.14.26-8.28.03-12.41.19-1.36.06-1.59-.51-1.58-1.7.05-5.23.03-10.47.03-15.71M604.54,482.95v14.79c0,1.45-.14,2.92.04,4.34.25,2.11-.46,2.72-2.57,2.59-3.33-.19-3.33-.05-3.33-3.44,0-9.86.02-19.72-.04-29.56-.01-1.41.38-1.71,1.8-1.91,3.28-.43,5.01.8,6.47,3.75,3.15,6.34,6.75,12.46,10.21,18.76.65-.5.37-1.16.37-1.67.02-6.34.05-12.69-.01-19.02,0-1.3.29-1.76,1.69-1.76,4.19.01,4.19-.05,4.19,4.21,0,9.51-.04,19.01.02,28.53.01,1.53-.32,1.97-1.99,2.14-3.27.35-5-.8-6.47-3.77-3.05-6.14-6.58-12.06-9.92-18.07-.15.03-.3.06-.46.09M25.47,482.77c-.59.8-.36,1.5-.36,2.14-.02,6-.04,11.99.02,17.99.01,1.34-.34,1.76-1.73,1.76-4.21-.01-4.21.06-4.21-4.24,0-9.58.02-19.15-.04-28.74,0-1.42.38-1.73,1.8-1.91,3.24-.41,5.02.7,6.5,3.71,3.15,6.38,6.79,12.52,10.64,18.72v-1.93c0-6.27.03-12.55-.03-18.82-.01-1.23.26-1.66,1.58-1.66,4.29,0,4.29-.07,4.29,4.31,0,9.43-.05,18.89.06,28.33.02,1.89-.59,2.1-2.3,2.27-3.04.31-4.67-.78-6.03-3.48-2.84-5.66-6.06-11.13-9.13-16.67-.31-.57-.65-1.13-1.04-1.8M185.01,430.37c1.65-.12,3.32-.1,4.94-.39,2.15-.4,3.22-2.23,3.01-4.72-.18-2.18-1.54-3.56-3.72-3.67-1.59-.08-3.18-.07-4.76-.08q-4.24-.01-4.24,4.14,0,4.67,4.77,4.72M191.44,435.04c4.97,3.79,6.92,9.32,9.9,14.14.54.87.4,1.23-.66,1.22-1.73-.02-3.45-.06-5.18.01-1.05.04-1.4-.67-1.83-1.38-2.08-3.41-4.22-6.79-6.27-10.22-1.27-2.12-3.12-2.94-5.52-2.95-1.26-.01-1.68.35-1.64,1.63.07,3.72-.04,7.45.05,11.17.03,1.33-.33,1.75-1.72,1.75-4.61,0-4.61.07-4.61-4.62,0-9.45.02-18.9-.03-28.35,0-1.4.3-1.91,1.8-1.87,4.69.14,9.39-.01,14.08.18,6.15.25,9.05,2.94,9.62,8.59.55,5.36-2.12,9.07-7.98,10.7M189.75,475.83v-.08c-1.38,0-2.75.02-4.13,0-.75-.02-1.13.22-1.12,1.05.04,2.27.03,4.54,0,6.81,0,.56.16.93.8.9,3.02-.08,6.07.32,9.05-.34,2.04-.46,2.96-2.16,2.79-4.65-.15-2.07-1.44-3.5-3.48-3.66-1.3-.11-2.61-.02-3.92-.02M195.66,489.28c5.25,4.02,7.16,9.93,10.67,15.34-2.63,0-4.8-.01-6.96,0-.88,0-1.09-.72-1.44-1.3-2.01-3.28-4-6.58-6.04-9.86-.55-.87-1.14-1.73-1.98-2.37-1.5-1.15-3.36-1.32-4.91-.8-1.13.37-.43,2.09-.46,3.19-.09,3.18-.09,6.36,0,9.52.03,1.27-.38,1.63-1.64,1.64-4.75.05-4.75.1-4.75-4.71,0-9.31.06-18.62-.05-27.92-.02-1.9.55-2.27,2.31-2.22,4.48.15,8.97,0,13.45.16,6.11.21,9.21,2.95,9.79,8.43.59,5.48-2.06,9.22-7.98,10.89"/>
    <path class="cls-1" d="M450.86,286.91c-11.7.07-21.19-9.37-21.22-21.11-.02-11.56,9.38-21.03,21.02-21.12,11.56-.1,21.06,9.27,21.2,20.92.14,11.7-9.27,21.24-21.01,21.31"/>
  </g>
</svg>